Coordinates
version=1
nRows=10
nColumns=40
inDegrees=yes

Units are S.I. units (second, meters, Newtons, ...)
Angles are in degrees.

endheader
time	pelvis_tilt	pelvis_list	pelvis_rotation	pelvis_tx	pelvis_ty	pelvis_tz	hip_flexion_r	hip_adduction_r	hip_rotation_r	knee_angle_r	knee_angle_r_beta	ankle_angle_r	subtalar_angle_r	mtp_angle_r	hip_flexion_l	hip_adduction_l	hip_rotation_l	knee_angle_l	knee_angle_l_beta	ankle_angle_l	subtalar_angle_l	mtp_angle_l	lumbar_extension	lumbar_bending	lumbar_rotation	arm_flex_r	arm_add_r	arm_rot_r	elbow_flex_r	pro_sup_r	wrist_flex_r	wrist_dev_r	arm_flex_l	arm_add_l	arm_rot_l	elbow_flex_l	pro_sup_l	wrist_flex_l	wrist_dev_l
     41.64000000	     -5.27601383	     -5.20896337	      4.90419990	      0.96168693	      0.92135761	      0.47201503	      0.65594772	      4.94978929	    -16.11835492	     10.75685137	     10.75685137	     16.97493148	      4.13536425	     -2.32499992	     32.53624903	     -6.63348201	     -1.78827128	     20.19783228	     20.19783228	      5.19458302	     -8.69078630	      7.52580048	     -7.96498325	      5.84983911	      3.94313987	     41.79782872	    -18.06379142	     -7.11094194	    110.90004746	     44.12214108	      0.00000000	      0.00000000	     -6.01916751	     -8.90577381	      2.84639412	     22.37550990	     45.29347001	      0.00000000	      0.00000000
     41.65185714	     -5.28842672	     -5.26013435	      4.71000589	      0.96262687	      0.92031307	      0.47071982	      0.20820643	      4.89161163	    -15.97455712	     10.99254437	     10.99254437	     17.39808210	      4.26719612	     -2.20183838	     32.09031707	     -6.64656552	     -1.53796889	     21.35352021	     21.35352021	      4.77857360	     -9.05422709	      7.16046971	     -7.77818589	      5.86807097	      4.05798252	     41.57924045	    -17.89334798	     -7.11538388	    110.99798315	     44.13133039	      0.00000000	      0.00000000	     -5.92919637	     -8.98401604	      2.95399661	     22.54500601	     45.27765721	      0.00000000	      0.00000000
     41.66371429	     -5.25995900	     -5.20158955	      4.47473817	      0.96373399	      0.91950262	      0.46936596	     -0.29697572	      4.70683471	    -15.75652914	     11.23071851	     11.23071851	     17.73937882	      4.36784896	     -2.24782242	     31.46728173	     -6.56132803	     -1.34281241	     22.22632680	     22.22632680	      4.56650438	     -9.23725059	      7.01107174	     -7.62896268	      5.75293654	      4.13186611	     41.12081952	    -17.68103431	     -6.97835681	    111.03069669	     44.12759302	      0.00000000	      0.00000000	     -5.76918290	     -9.04208608	      2.96823704	     22.70570426	     45.27806404	      0.00000000	      0.00000000
     41.67557143	     -5.24651104	     -5.17006750	      4.26166330	      0.96482820	      0.91876952	      0.46782134	     -0.72440777	      4.50840536	    -15.58474089	     11.58071339	     11.58071339	     18.06255232	      4.48259993	     -2.27836468	     30.96155765	     -6.47231601	     -1.08511824	     23.09778347	     23.09778347	      4.49284657	     -9.45572760	      6.77201984	     -7.48844293	      5.73354023	      4.19995761	     40.49788683	    -17.51108137	     -6.84136751	    111.06795647	     44.12392115	      0.00000000	      0.00000000	     -5.58205030	     -9.10296667	      2.96764649	     22.97800621	     45.28084501	      0.00000000	      0.00000000
     41.68742857	     -5.38404217	     -5.13462568	      4.03940401	      0.96580448	      0.91799117	      0.46627845	     -0.78558092	      4.21002171	    -15.61860896	     12.33669816	     12.33669816	     18.59839441	      4.77466242	     -1.98733389	     30.62875349	     -6.34657262	     -0.78758791	     23.77509864	     23.77509864	      4.38947903	     -9.85212129	      6.15145419	     -7.20074389	      5.60704455	      4.47120284	     39.57052069	    -17.70289839	     -6.89443637	    111.39854762	     44.13479449	      0.00000000	      0.00000000	     -5.46928075	     -9.19582352	      2.95809090	     24.05728281	     45.28058895	      0.00000000	      0.00000000
     41.69928571	     -5.40546512	     -5.01767937	      3.85050225	      0.96681651	      0.91775049	      0.46443190	     -1.03573541	      3.83955209	    -15.56179258	     12.95354638	     12.95354638	     18.93386977	      4.90894599	     -1.66390389	     30.15473651	     -6.11061520	     -0.50821052	     24.27733170	     24.27733170	      4.44836056	    -10.35895470	      5.60416973	     -7.05364873	      5.47049759	      4.58329731	     38.55683953	    -17.60121429	     -6.96478844	    111.20594802	     44.16662148	      0.00000000	      0.00000000	     -5.26014308	     -9.27815184	      3.01652768	     24.90540974	     45.27497408	      0.00000000	      0.00000000
     41.71114286	     -5.35187303	     -4.93001473	      3.72161565	      0.96784514	      0.91791237	      0.46245184	     -1.44884709	      3.53937124	    -15.39571069	     13.36608929	     13.36608929	     19.00504960	      4.91903762	     -1.69691200	     29.67502619	     -5.92117023	     -0.32128923	     24.76890554	     24.76890554	      4.82682824	    -10.64266005	      5.34235984	     -7.01521488	      5.39998105	      4.46874803	     37.58644853	    -17.32054919	     -6.78345290	    110.91031860	     44.16984102	      0.00000000	      0.00000000	     -4.84993034	     -9.26261364	      3.02834529	     25.16325746	     45.28047586	      0.00000000	      0.00000000
     41.72300000	     -5.30182698	     -4.82598667	      3.62933424	      0.96875839	      0.91833731	      0.46021593	     -1.73902428	      3.16940275	    -15.30762399	     13.98175106	     13.98175106	     19.01844644	      4.87255331	     -1.77502141	     29.23299929	     -5.68338199	     -0.13285906	     25.20110267	     25.20110267	      5.29064843	    -11.01936183	      5.08300723	     -6.98779450	      5.34830131	      4.38391443	     36.40209522	    -17.08498436	     -6.61223718	    110.40941194	     44.17836407	      0.00000000	      0.00000000	     -4.32914385	     -9.20852818	      3.02741328	     25.51239688	     45.28946645	      0.00000000	      0.00000000
     41.73485714	     -5.47910975	     -4.59399665	      3.48359739	      0.96937145	      0.91869332	      0.45777606	     -1.41966500	      2.48895688	    -15.30041334	     15.29222155	     15.29222155	     19.09850491	      4.86222288	     -2.06508483	     28.95245195	     -5.24541656	      0.10586867	     25.40737955	     25.40737955	      5.63781504	    -11.81079578	      4.94695187	     -6.70014665	      5.10761796	      4.55499035	     34.97884650	    -17.25123241	     -6.72647858	    109.15263886	     44.22679623	      0.00000000	      0.00000000	     -3.79689295	     -9.20343141	      2.97511921	     26.22664564	     45.30631563	      0.00000000	      0.00000000
     41.74671429	     -5.48099124	     -4.42802842	      3.39988200	      0.97008008	      0.91950948	      0.45514136	     -1.35367131	      1.90385823	    -15.36338280	     16.45290242	     16.45290242	     19.01990766	      4.87043717	     -2.40865606	     28.47080202	     -4.87513947	      0.32739790	     25.55667775	     25.55667775	      6.08997498	    -12.50392956	      4.86646632	     -6.63548698	      5.02489378	      4.53368023	     33.60349407	    -17.10000320	     -6.75065283	    107.93896674	     44.27205514	      0.00000000	      0.00000000	     -3.20991952	     -9.13287335	      2.94688785	     26.93033303	     45.32026361	      0.00000000	      0.00000000
